<mxfile host="drawio-plugin" modified="2024-01-03T09:09:29.904Z" agent="5.0 (Windows NT 6.2; Win64; x64) AppleWebKit/537.36 (KHTML, like Gecko) Chrome/98.0.4758.102 Safari/537.36" etag="6JsvxUDoIgd0VSbrYi4c" version="20.5.3" type="embed" pages="2"><diagram name="Page-1" id="efa7a0a1-bf9b-a30e-e6df-94a7791c09e9"><mxGraphModel dx="1030" dy="1519" grid="1" gridSize="10" guides="1" tooltips="1" connect="1" arrows="1" fold="1" page="1" pageScale="1" pageWidth="826" pageHeight="1169" background="none" math="0" shadow="0"><root><mxCell id="0"/><mxCell id="1" parent="0"/><mxCell id="jEpxMDrMPe9GixwwqnaU-180" value="restaurant (음식점)" style="shape=table;startSize=30;container=1;collapsible=1;childLayout=tableLayout;fixedRows=1;rowLines=0;fontStyle=1;align=center;resizeLast=1;" parent="1" vertex="1"><mxGeometry x="80" y="160" width="310" height="280" as="geometry"/></mxCell><mxCell id="jEpxMDrMPe9GixwwqnaU-181" value="" style="shape=tableRow;horizontal=0;startSize=0;swimlaneHead=0;swimlaneBody=0;fillColor=none;collapsible=0;dropTarget=0;points=[[0,0.5],[1,0.5]];portConstraint=eastwest;top=0;left=0;right=0;bottom=1;" parent="jEpxMDrMPe9GixwwqnaU-180" vertex="1"><mxGeometry y="30" width="310" height="30" as="geometry"/></mxCell><mxCell id="jEpxMDrMPe9GixwwqnaU-182" value="PK" style="shape=partialRectangle;connectable=0;fillColor=none;top=0;left=0;bottom=0;right=0;fontStyle=1;overflow=hidden;" parent="jEpxMDrMPe9GixwwqnaU-181" vertex="1"><mxGeometry width="30" height="30" as="geometry"><mxRectangle width="30" height="30" as="alternateBounds"/></mxGeometry></mxCell><mxCell id="jEpxMDrMPe9GixwwqnaU-183" value="id - bigint" style="shape=partialRectangle;connectable=0;fillColor=none;top=0;left=0;bottom=0;right=0;align=left;spacingLeft=6;fontStyle=5;overflow=hidden;" parent="jEpxMDrMPe9GixwwqnaU-181" vertex="1"><mxGeometry x="30" width="280" height="30" as="geometry"><mxRectangle width="280" height="30" as="alternateBounds"/></mxGeometry></mxCell><mxCell id="jEpxMDrMPe9GixwwqnaU-184" value="" style="shape=tableRow;horizontal=0;startSize=0;swimlaneHead=0;swimlaneBody=0;fillColor=none;collapsible=0;dropTarget=0;points=[[0,0.5],[1,0.5]];portConstraint=eastwest;top=0;left=0;right=0;bottom=0;" parent="jEpxMDrMPe9GixwwqnaU-180" vertex="1"><mxGeometry y="60" width="310" height="30" as="geometry"/></mxCell><mxCell id="jEpxMDrMPe9GixwwqnaU-185" value="FK" style="shape=partialRectangle;connectable=0;fillColor=none;top=0;left=0;bottom=0;right=0;editable=1;overflow=hidden;" parent="jEpxMDrMPe9GixwwqnaU-184" vertex="1"><mxGeometry width="30" height="30" as="geometry"><mxRectangle width="30" height="30" as="alternateBounds"/></mxGeometry></mxCell><mxCell id="jEpxMDrMPe9GixwwqnaU-186" value="user_account_id (유저 계정 id) - varchar(50)" style="shape=partialRectangle;connectable=0;fillColor=none;top=0;left=0;bottom=0;right=0;align=left;spacingLeft=6;overflow=hidden;fontStyle=1" parent="jEpxMDrMPe9GixwwqnaU-184" vertex="1"><mxGeometry x="30" width="280" height="30" as="geometry"><mxRectangle width="280" height="30" as="alternateBounds"/></mxGeometry></mxCell><mxCell id="jEpxMDrMPe9GixwwqnaU-187" value="" style="shape=tableRow;horizontal=0;startSize=0;swimlaneHead=0;swimlaneBody=0;fillColor=none;collapsible=0;dropTarget=0;points=[[0,0.5],[1,0.5]];portConstraint=eastwest;top=0;left=0;right=0;bottom=0;" parent="jEpxMDrMPe9GixwwqnaU-180" vertex="1"><mxGeometry y="90" width="310" height="30" as="geometry"/></mxCell><mxCell id="jEpxMDrMPe9GixwwqnaU-188" value="" style="shape=partialRectangle;connectable=0;fillColor=none;top=0;left=0;bottom=0;right=0;editable=1;overflow=hidden;" parent="jEpxMDrMPe9GixwwqnaU-187" vertex="1"><mxGeometry width="30" height="30" as="geometry"><mxRectangle width="30" height="30" as="alternateBounds"/></mxGeometry></mxCell><mxCell id="jEpxMDrMPe9GixwwqnaU-189" value="title (제목) - varchar(255)" style="shape=partialRectangle;connectable=0;fillColor=none;top=0;left=0;bottom=0;right=0;align=left;spacingLeft=6;overflow=hidden;fontStyle=1" parent="jEpxMDrMPe9GixwwqnaU-187" vertex="1"><mxGeometry x="30" width="280" height="30" as="geometry"><mxRectangle width="280" height="30" as="alternateBounds"/></mxGeometry></mxCell><mxCell id="jEpxMDrMPe9GixwwqnaU-190" value="" style="shape=tableRow;horizontal=0;startSize=0;swimlaneHead=0;swimlaneBody=0;fillColor=none;collapsible=0;dropTarget=0;points=[[0,0.5],[1,0.5]];portConstraint=eastwest;top=0;left=0;right=0;bottom=0;" parent="jEpxMDrMPe9GixwwqnaU-180" vertex="1"><mxGeometry y="120" width="310" height="30" as="geometry"/></mxCell><mxCell id="jEpxMDrMPe9GixwwqnaU-191" value="" style="shape=partialRectangle;connectable=0;fillColor=none;top=0;left=0;bottom=0;right=0;editable=1;overflow=hidden;" parent="jEpxMDrMPe9GixwwqnaU-190" vertex="1"><mxGeometry width="30" height="30" as="geometry"><mxRectangle width="30" height="30" as="alternateBounds"/></mxGeometry></mxCell><mxCell id="jEpxMDrMPe9GixwwqnaU-192" value="content (본문) - varchar(65535)" style="shape=partialRectangle;connectable=0;fillColor=none;top=0;left=0;bottom=0;right=0;align=left;spacingLeft=6;overflow=hidden;fontStyle=1" parent="jEpxMDrMPe9GixwwqnaU-190" vertex="1"><mxGeometry x="30" width="280" height="30" as="geometry"><mxRectangle width="280" height="30" as="alternateBounds"/></mxGeometry></mxCell><mxCell id="jEpxMDrMPe9GixwwqnaU-193" value="" style="shape=tableRow;horizontal=0;startSize=0;swimlaneHead=0;swimlaneBody=0;fillColor=none;collapsible=0;dropTarget=0;points=[[0,0.5],[1,0.5]];portConstraint=eastwest;top=0;left=0;right=0;bottom=0;" parent="jEpxMDrMPe9GixwwqnaU-180" vertex="1"><mxGeometry y="150" width="310" height="30" as="geometry"/></mxCell><mxCell id="jEpxMDrMPe9GixwwqnaU-194" value="" style="shape=partialRectangle;connectable=0;fillColor=none;top=0;left=0;bottom=0;right=0;editable=1;overflow=hidden;" parent="jEpxMDrMPe9GixwwqnaU-193" vertex="1"><mxGeometry width="30" height="30" as="geometry"><mxRectangle width="30" height="30" as="alternateBounds"/></mxGeometry></mxCell><mxCell id="jEpxMDrMPe9GixwwqnaU-195" value="createdAt (생성일시) - datetime" style="shape=partialRectangle;connectable=0;fillColor=none;top=0;left=0;bottom=0;right=0;align=left;spacingLeft=6;overflow=hidden;fontStyle=1" parent="jEpxMDrMPe9GixwwqnaU-193" vertex="1"><mxGeometry x="30" width="280" height="30" as="geometry"><mxRectangle width="280" height="30" as="alternateBounds"/></mxGeometry></mxCell><mxCell id="jEpxMDrMPe9GixwwqnaU-196" value="" style="shape=tableRow;horizontal=0;startSize=0;swimlaneHead=0;swimlaneBody=0;fillColor=none;collapsible=0;dropTarget=0;points=[[0,0.5],[1,0.5]];portConstraint=eastwest;top=0;left=0;right=0;bottom=0;" parent="jEpxMDrMPe9GixwwqnaU-180" vertex="1"><mxGeometry y="180" width="310" height="30" as="geometry"/></mxCell><mxCell id="jEpxMDrMPe9GixwwqnaU-197" value="" style="shape=partialRectangle;connectable=0;fillColor=none;top=0;left=0;bottom=0;right=0;editable=1;overflow=hidden;" parent="jEpxMDrMPe9GixwwqnaU-196" vertex="1"><mxGeometry width="30" height="30" as="geometry"><mxRectangle width="30" height="30" as="alternateBounds"/></mxGeometry></mxCell><mxCell id="jEpxMDrMPe9GixwwqnaU-198" value="createdBy (생성자) - varchar(100)" style="shape=partialRectangle;connectable=0;fillColor=none;top=0;left=0;bottom=0;right=0;align=left;spacingLeft=6;overflow=hidden;fontStyle=1" parent="jEpxMDrMPe9GixwwqnaU-196" vertex="1"><mxGeometry x="30" width="280" height="30" as="geometry"><mxRectangle width="280" height="30" as="alternateBounds"/></mxGeometry></mxCell><mxCell id="jEpxMDrMPe9GixwwqnaU-199" value="" style="shape=tableRow;horizontal=0;startSize=0;swimlaneHead=0;swimlaneBody=0;fillColor=none;collapsible=0;dropTarget=0;points=[[0,0.5],[1,0.5]];portConstraint=eastwest;top=0;left=0;right=0;bottom=0;" parent="jEpxMDrMPe9GixwwqnaU-180" vertex="1"><mxGeometry y="210" width="310" height="30" as="geometry"/></mxCell><mxCell id="jEpxMDrMPe9GixwwqnaU-200" value="" style="shape=partialRectangle;connectable=0;fillColor=none;top=0;left=0;bottom=0;right=0;editable=1;overflow=hidden;" parent="jEpxMDrMPe9GixwwqnaU-199" vertex="1"><mxGeometry width="30" height="30" as="geometry"><mxRectangle width="30" height="30" as="alternateBounds"/></mxGeometry></mxCell><mxCell id="jEpxMDrMPe9GixwwqnaU-201" value="modifiedAt (수정일시) - datetime" style="shape=partialRectangle;connectable=0;fillColor=none;top=0;left=0;bottom=0;right=0;align=left;spacingLeft=6;overflow=hidden;fontStyle=1" parent="jEpxMDrMPe9GixwwqnaU-199" vertex="1"><mxGeometry x="30" width="280" height="30" as="geometry"><mxRectangle width="280" height="30" as="alternateBounds"/></mxGeometry></mxCell><mxCell id="jEpxMDrMPe9GixwwqnaU-202" value="" style="shape=tableRow;horizontal=0;startSize=0;swimlaneHead=0;swimlaneBody=0;fillColor=none;collapsible=0;dropTarget=0;points=[[0,0.5],[1,0.5]];portConstraint=eastwest;top=0;left=0;right=0;bottom=0;" parent="jEpxMDrMPe9GixwwqnaU-180" vertex="1"><mxGeometry y="240" width="310" height="30" as="geometry"/></mxCell><mxCell id="jEpxMDrMPe9GixwwqnaU-203" value="" style="shape=partialRectangle;connectable=0;fillColor=none;top=0;left=0;bottom=0;right=0;editable=1;overflow=hidden;" parent="jEpxMDrMPe9GixwwqnaU-202" vertex="1"><mxGeometry width="30" height="30" as="geometry"><mxRectangle width="30" height="30" as="alternateBounds"/></mxGeometry></mxCell><mxCell id="jEpxMDrMPe9GixwwqnaU-204" value="modifiedBy (수정자) - varchar(100)" style="shape=partialRectangle;connectable=0;fillColor=none;top=0;left=0;bottom=0;right=0;align=left;spacingLeft=6;overflow=hidden;fontStyle=1" parent="jEpxMDrMPe9GixwwqnaU-202" vertex="1"><mxGeometry x="30" width="280" height="30" as="geometry"><mxRectangle width="280" height="30" as="alternateBounds"/></mxGeometry></mxCell><mxCell id="jEpxMDrMPe9GixwwqnaU-205" value="restaurant_comment (댓글)" style="shape=table;startSize=30;container=1;collapsible=1;childLayout=tableLayout;fixedRows=1;rowLines=0;fontStyle=1;align=center;resizeLast=1;" parent="1" vertex="1"><mxGeometry x="820" y="160" width="290" height="280" as="geometry"/></mxCell><mxCell id="jEpxMDrMPe9GixwwqnaU-206" value="" style="shape=tableRow;horizontal=0;startSize=0;swimlaneHead=0;swimlaneBody=0;fillColor=none;collapsible=0;dropTarget=0;points=[[0,0.5],[1,0.5]];portConstraint=eastwest;top=0;left=0;right=0;bottom=1;" parent="jEpxMDrMPe9GixwwqnaU-205" vertex="1"><mxGeometry y="30" width="290" height="30" as="geometry"/></mxCell><mxCell id="jEpxMDrMPe9GixwwqnaU-207" value="PK" style="shape=partialRectangle;connectable=0;fillColor=none;top=0;left=0;bottom=0;right=0;fontStyle=1;overflow=hidden;" parent="jEpxMDrMPe9GixwwqnaU-206" vertex="1"><mxGeometry width="30" height="30" as="geometry"><mxRectangle width="30" height="30" as="alternateBounds"/></mxGeometry></mxCell><mxCell id="jEpxMDrMPe9GixwwqnaU-208" value="id - bigint" style="shape=partialRectangle;connectable=0;fillColor=none;top=0;left=0;bottom=0;right=0;align=left;spacingLeft=6;fontStyle=5;overflow=hidden;" parent="jEpxMDrMPe9GixwwqnaU-206" vertex="1"><mxGeometry x="30" width="260" height="30" as="geometry"><mxRectangle width="260" height="30" as="alternateBounds"/></mxGeometry></mxCell><mxCell id="jEpxMDrMPe9GixwwqnaU-209" value="" style="shape=tableRow;horizontal=0;startSize=0;swimlaneHead=0;swimlaneBody=0;fillColor=none;collapsible=0;dropTarget=0;points=[[0,0.5],[1,0.5]];portConstraint=eastwest;top=0;left=0;right=0;bottom=0;" parent="jEpxMDrMPe9GixwwqnaU-205" vertex="1"><mxGeometry y="60" width="290" height="30" as="geometry"/></mxCell><mxCell id="jEpxMDrMPe9GixwwqnaU-210" value="FK" style="shape=partialRectangle;connectable=0;fillColor=none;top=0;left=0;bottom=0;right=0;editable=1;overflow=hidden;" parent="jEpxMDrMPe9GixwwqnaU-209" vertex="1"><mxGeometry width="30" height="30" as="geometry"><mxRectangle width="30" height="30" as="alternateBounds"/></mxGeometry></mxCell><mxCell id="jEpxMDrMPe9GixwwqnaU-211" value="restaurant_id (음식점 id) - bigint" style="shape=partialRectangle;connectable=0;fillColor=none;top=0;left=0;bottom=0;right=0;align=left;spacingLeft=6;overflow=hidden;fontStyle=1" parent="jEpxMDrMPe9GixwwqnaU-209" vertex="1"><mxGeometry x="30" width="260" height="30" as="geometry"><mxRectangle width="260" height="30" as="alternateBounds"/></mxGeometry></mxCell><mxCell id="jEpxMDrMPe9GixwwqnaU-212" value="" style="shape=tableRow;horizontal=0;startSize=0;swimlaneHead=0;swimlaneBody=0;fillColor=none;collapsible=0;dropTarget=0;points=[[0,0.5],[1,0.5]];portConstraint=eastwest;top=0;left=0;right=0;bottom=0;" parent="jEpxMDrMPe9GixwwqnaU-205" vertex="1"><mxGeometry y="90" width="290" height="30" as="geometry"/></mxCell><mxCell id="jEpxMDrMPe9GixwwqnaU-213" value="FK" style="shape=partialRectangle;connectable=0;fillColor=none;top=0;left=0;bottom=0;right=0;editable=1;overflow=hidden;" parent="jEpxMDrMPe9GixwwqnaU-212" vertex="1"><mxGeometry width="30" height="30" as="geometry"><mxRectangle width="30" height="30" as="alternateBounds"/></mxGeometry></mxCell><mxCell id="jEpxMDrMPe9GixwwqnaU-214" value="user_account_id (유저 계정 id) - varchar(50)" style="shape=partialRectangle;connectable=0;fillColor=none;top=0;left=0;bottom=0;right=0;align=left;spacingLeft=6;overflow=hidden;fontStyle=1" parent="jEpxMDrMPe9GixwwqnaU-212" vertex="1"><mxGeometry x="30" width="260" height="30" as="geometry"><mxRectangle width="260" height="30" as="alternateBounds"/></mxGeometry></mxCell><mxCell id="jEpxMDrMPe9GixwwqnaU-218" value="" style="shape=tableRow;horizontal=0;startSize=0;swimlaneHead=0;swimlaneBody=0;fillColor=none;collapsible=0;dropTarget=0;points=[[0,0.5],[1,0.5]];portConstraint=eastwest;top=0;left=0;right=0;bottom=0;" parent="jEpxMDrMPe9GixwwqnaU-205" vertex="1"><mxGeometry y="120" width="290" height="30" as="geometry"/></mxCell><mxCell id="jEpxMDrMPe9GixwwqnaU-219" value="" style="shape=partialRectangle;connectable=0;fillColor=none;top=0;left=0;bottom=0;right=0;editable=1;overflow=hidden;" parent="jEpxMDrMPe9GixwwqnaU-218" vertex="1"><mxGeometry width="30" height="30" as="geometry"><mxRectangle width="30" height="30" as="alternateBounds"/></mxGeometry></mxCell><mxCell id="jEpxMDrMPe9GixwwqnaU-220" value="content (본문) - varchar(2000)" style="shape=partialRectangle;connectable=0;fillColor=none;top=0;left=0;bottom=0;right=0;align=left;spacingLeft=6;overflow=hidden;fontStyle=1" parent="jEpxMDrMPe9GixwwqnaU-218" vertex="1"><mxGeometry x="30" width="260" height="30" as="geometry"><mxRectangle width="260" height="30" as="alternateBounds"/></mxGeometry></mxCell><mxCell id="jEpxMDrMPe9GixwwqnaU-221" value="" style="shape=tableRow;horizontal=0;startSize=0;swimlaneHead=0;swimlaneBody=0;fillColor=none;collapsible=0;dropTarget=0;points=[[0,0.5],[1,0.5]];portConstraint=eastwest;top=0;left=0;right=0;bottom=0;" parent="jEpxMDrMPe9GixwwqnaU-205" vertex="1"><mxGeometry y="150" width="290" height="30" as="geometry"/></mxCell><mxCell id="jEpxMDrMPe9GixwwqnaU-222" value="" style="shape=partialRectangle;connectable=0;fillColor=none;top=0;left=0;bottom=0;right=0;editable=1;overflow=hidden;" parent="jEpxMDrMPe9GixwwqnaU-221" vertex="1"><mxGeometry width="30" height="30" as="geometry"><mxRectangle width="30" height="30" as="alternateBounds"/></mxGeometry></mxCell><mxCell id="jEpxMDrMPe9GixwwqnaU-223" value="createdAt (생성일시) - datetime" style="shape=partialRectangle;connectable=0;fillColor=none;top=0;left=0;bottom=0;right=0;align=left;spacingLeft=6;overflow=hidden;fontStyle=1" parent="jEpxMDrMPe9GixwwqnaU-221" vertex="1"><mxGeometry x="30" width="260" height="30" as="geometry"><mxRectangle width="260" height="30" as="alternateBounds"/></mxGeometry></mxCell><mxCell id="jEpxMDrMPe9GixwwqnaU-224" value="" style="shape=tableRow;horizontal=0;startSize=0;swimlaneHead=0;swimlaneBody=0;fillColor=none;collapsible=0;dropTarget=0;points=[[0,0.5],[1,0.5]];portConstraint=eastwest;top=0;left=0;right=0;bottom=0;" parent="jEpxMDrMPe9GixwwqnaU-205" vertex="1"><mxGeometry y="180" width="290" height="30" as="geometry"/></mxCell><mxCell id="jEpxMDrMPe9GixwwqnaU-225" value="" style="shape=partialRectangle;connectable=0;fillColor=none;top=0;left=0;bottom=0;right=0;editable=1;overflow=hidden;" parent="jEpxMDrMPe9GixwwqnaU-224" vertex="1"><mxGeometry width="30" height="30" as="geometry"><mxRectangle width="30" height="30" as="alternateBounds"/></mxGeometry></mxCell><mxCell id="jEpxMDrMPe9GixwwqnaU-226" value="createdBy (생성자) - varchar(100)" style="shape=partialRectangle;connectable=0;fillColor=none;top=0;left=0;bottom=0;right=0;align=left;spacingLeft=6;overflow=hidden;fontStyle=1" parent="jEpxMDrMPe9GixwwqnaU-224" vertex="1"><mxGeometry x="30" width="260" height="30" as="geometry"><mxRectangle width="260" height="30" as="alternateBounds"/></mxGeometry></mxCell><mxCell id="jEpxMDrMPe9GixwwqnaU-227" value="" style="shape=tableRow;horizontal=0;startSize=0;swimlaneHead=0;swimlaneBody=0;fillColor=none;collapsible=0;dropTarget=0;points=[[0,0.5],[1,0.5]];portConstraint=eastwest;top=0;left=0;right=0;bottom=0;" parent="jEpxMDrMPe9GixwwqnaU-205" vertex="1"><mxGeometry y="210" width="290" height="30" as="geometry"/></mxCell><mxCell id="jEpxMDrMPe9GixwwqnaU-228" value="" style="shape=partialRectangle;connectable=0;fillColor=none;top=0;left=0;bottom=0;right=0;editable=1;overflow=hidden;" parent="jEpxMDrMPe9GixwwqnaU-227" vertex="1"><mxGeometry width="30" height="30" as="geometry"><mxRectangle width="30" height="30" as="alternateBounds"/></mxGeometry></mxCell><mxCell id="jEpxMDrMPe9GixwwqnaU-229" value="modifiedAt (수정일시) - datetime" style="shape=partialRectangle;connectable=0;fillColor=none;top=0;left=0;bottom=0;right=0;align=left;spacingLeft=6;overflow=hidden;fontStyle=1" parent="jEpxMDrMPe9GixwwqnaU-227" vertex="1"><mxGeometry x="30" width="260" height="30" as="geometry"><mxRectangle width="260" height="30" as="alternateBounds"/></mxGeometry></mxCell><mxCell id="jEpxMDrMPe9GixwwqnaU-230" value="" style="shape=tableRow;horizontal=0;startSize=0;swimlaneHead=0;swimlaneBody=0;fillColor=none;collapsible=0;dropTarget=0;points=[[0,0.5],[1,0.5]];portConstraint=eastwest;top=0;left=0;right=0;bottom=0;" parent="jEpxMDrMPe9GixwwqnaU-205" vertex="1"><mxGeometry y="240" width="290" height="30" as="geometry"/></mxCell><mxCell id="jEpxMDrMPe9GixwwqnaU-231" value="" style="shape=partialRectangle;connectable=0;fillColor=none;top=0;left=0;bottom=0;right=0;editable=1;overflow=hidden;" parent="jEpxMDrMPe9GixwwqnaU-230" vertex="1"><mxGeometry width="30" height="30" as="geometry"><mxRectangle width="30" height="30" as="alternateBounds"/></mxGeometry></mxCell><mxCell id="jEpxMDrMPe9GixwwqnaU-232" value="modifiedBy (수정자) - varchar(100)" style="shape=partialRectangle;connectable=0;fillColor=none;top=0;left=0;bottom=0;right=0;align=left;spacingLeft=6;overflow=hidden;fontStyle=1" parent="jEpxMDrMPe9GixwwqnaU-230" vertex="1"><mxGeometry x="30" width="260" height="30" as="geometry"><mxRectangle width="260" height="30" as="alternateBounds"/></mxGeometry></mxCell><mxCell id="jEpxMDrMPe9GixwwqnaU-233" value="" style="edgeStyle=orthogonalEdgeStyle;fontSize=12;html=1;endArrow=ERzeroToMany;startArrow=ERmandOne;rounded=0;entryX=0;entryY=0.5;entryDx=0;entryDy=0;exitX=1;exitY=0.267;exitDx=0;exitDy=0;exitPerimeter=0;" parent="1" source="jEpxMDrMPe9GixwwqnaU-181" target="jEpxMDrMPe9GixwwqnaU-209" edge="1"><mxGeometry width="100" height="100" relative="1" as="geometry"><mxPoint x="300" y="540" as="sourcePoint"/><mxPoint x="400" y="440" as="targetPoint"/></mxGeometry></mxCell><mxCell id="jEpxMDrMPe9GixwwqnaU-234" value="user_account (유저 계정)" style="shape=table;startSize=30;container=1;collapsible=1;childLayout=tableLayout;fixedRows=1;rowLines=0;fontStyle=1;align=center;resizeLast=1;" parent="1" vertex="1"><mxGeometry x="84" y="580" width="296" height="310" as="geometry"/></mxCell><mxCell id="jEpxMDrMPe9GixwwqnaU-235" value="" style="shape=tableRow;horizontal=0;startSize=0;swimlaneHead=0;swimlaneBody=0;fillColor=none;collapsible=0;dropTarget=0;points=[[0,0.5],[1,0.5]];portConstraint=eastwest;top=0;left=0;right=0;bottom=1;" parent="jEpxMDrMPe9GixwwqnaU-234" vertex="1"><mxGeometry y="30" width="296" height="30" as="geometry"/></mxCell><mxCell id="jEpxMDrMPe9GixwwqnaU-236" value="PK" style="shape=partialRectangle;connectable=0;fillColor=none;top=0;left=0;bottom=0;right=0;fontStyle=1;overflow=hidden;" parent="jEpxMDrMPe9GixwwqnaU-235" vertex="1"><mxGeometry width="30" height="30" as="geometry"><mxRectangle width="30" height="30" as="alternateBounds"/></mxGeometry></mxCell><mxCell id="jEpxMDrMPe9GixwwqnaU-237" value="userId (유저 id) - varchar(50)" style="shape=partialRectangle;connectable=0;fillColor=none;top=0;left=0;bottom=0;right=0;align=left;spacingLeft=6;fontStyle=5;overflow=hidden;" parent="jEpxMDrMPe9GixwwqnaU-235" vertex="1"><mxGeometry x="30" width="266" height="30" as="geometry"><mxRectangle width="266" height="30" as="alternateBounds"/></mxGeometry></mxCell><mxCell id="jEpxMDrMPe9GixwwqnaU-238" value="" style="shape=tableRow;horizontal=0;startSize=0;swimlaneHead=0;swimlaneBody=0;fillColor=none;collapsible=0;dropTarget=0;points=[[0,0.5],[1,0.5]];portConstraint=eastwest;top=0;left=0;right=0;bottom=0;" parent="jEpxMDrMPe9GixwwqnaU-234" vertex="1"><mxGeometry y="60" width="296" height="30" as="geometry"/></mxCell><mxCell id="jEpxMDrMPe9GixwwqnaU-239" value="" style="shape=partialRectangle;connectable=0;fillColor=none;top=0;left=0;bottom=0;right=0;editable=1;overflow=hidden;" parent="jEpxMDrMPe9GixwwqnaU-238" vertex="1"><mxGeometry width="30" height="30" as="geometry"><mxRectangle width="30" height="30" as="alternateBounds"/></mxGeometry></mxCell><mxCell id="jEpxMDrMPe9GixwwqnaU-240" value="user_password (유저암호) - varchar(255)" style="shape=partialRectangle;connectable=0;fillColor=none;top=0;left=0;bottom=0;right=0;align=left;spacingLeft=6;overflow=hidden;fontStyle=1" parent="jEpxMDrMPe9GixwwqnaU-238" vertex="1"><mxGeometry x="30" width="266" height="30" as="geometry"><mxRectangle width="266" height="30" as="alternateBounds"/></mxGeometry></mxCell><mxCell id="jEpxMDrMPe9GixwwqnaU-241" value="" style="shape=tableRow;horizontal=0;startSize=0;swimlaneHead=0;swimlaneBody=0;fillColor=none;collapsible=0;dropTarget=0;points=[[0,0.5],[1,0.5]];portConstraint=eastwest;top=0;left=0;right=0;bottom=0;" parent="jEpxMDrMPe9GixwwqnaU-234" vertex="1"><mxGeometry y="90" width="296" height="30" as="geometry"/></mxCell><mxCell id="jEpxMDrMPe9GixwwqnaU-242" value="UK" style="shape=partialRectangle;connectable=0;fillColor=none;top=0;left=0;bottom=0;right=0;editable=1;overflow=hidden;" parent="jEpxMDrMPe9GixwwqnaU-241" vertex="1"><mxGeometry width="30" height="30" as="geometry"><mxRectangle width="30" height="30" as="alternateBounds"/></mxGeometry></mxCell><mxCell id="jEpxMDrMPe9GixwwqnaU-243" value="email (이메일) - varchar(100)" style="shape=partialRectangle;connectable=0;fillColor=none;top=0;left=0;bottom=0;right=0;align=left;spacingLeft=6;overflow=hidden;" parent="jEpxMDrMPe9GixwwqnaU-241" vertex="1"><mxGeometry x="30" width="266" height="30" as="geometry"><mxRectangle width="266" height="30" as="alternateBounds"/></mxGeometry></mxCell><mxCell id="jEpxMDrMPe9GixwwqnaU-244" value="" style="shape=tableRow;horizontal=0;startSize=0;swimlaneHead=0;swimlaneBody=0;fillColor=none;collapsible=0;dropTarget=0;points=[[0,0.5],[1,0.5]];portConstraint=eastwest;top=0;left=0;right=0;bottom=0;" parent="jEpxMDrMPe9GixwwqnaU-234" vertex="1"><mxGeometry y="120" width="296" height="30" as="geometry"/></mxCell><mxCell id="jEpxMDrMPe9GixwwqnaU-245" value="" style="shape=partialRectangle;connectable=0;fillColor=none;top=0;left=0;bottom=0;right=0;editable=1;overflow=hidden;" parent="jEpxMDrMPe9GixwwqnaU-244" vertex="1"><mxGeometry width="30" height="30" as="geometry"><mxRectangle width="30" height="30" as="alternateBounds"/></mxGeometry></mxCell><mxCell id="jEpxMDrMPe9GixwwqnaU-246" value="nickname (닉네임) - varchar(100)" style="shape=partialRectangle;connectable=0;fillColor=none;top=0;left=0;bottom=0;right=0;align=left;spacingLeft=6;overflow=hidden;" parent="jEpxMDrMPe9GixwwqnaU-244" vertex="1"><mxGeometry x="30" width="266" height="30" as="geometry"><mxRectangle width="266" height="30" as="alternateBounds"/></mxGeometry></mxCell><mxCell id="jEpxMDrMPe9GixwwqnaU-247" value="" style="shape=tableRow;horizontal=0;startSize=0;swimlaneHead=0;swimlaneBody=0;fillColor=none;collapsible=0;dropTarget=0;points=[[0,0.5],[1,0.5]];portConstraint=eastwest;top=0;left=0;right=0;bottom=0;" parent="jEpxMDrMPe9GixwwqnaU-234" vertex="1"><mxGeometry y="150" width="296" height="30" as="geometry"/></mxCell><mxCell id="jEpxMDrMPe9GixwwqnaU-248" value="" style="shape=partialRectangle;connectable=0;fillColor=none;top=0;left=0;bottom=0;right=0;editable=1;overflow=hidden;" parent="jEpxMDrMPe9GixwwqnaU-247" vertex="1"><mxGeometry width="30" height="30" as="geometry"><mxRectangle width="30" height="30" as="alternateBounds"/></mxGeometry></mxCell><mxCell id="jEpxMDrMPe9GixwwqnaU-249" value="memo (메모) - varchar(255)" style="shape=partialRectangle;connectable=0;fillColor=none;top=0;left=0;bottom=0;right=0;align=left;spacingLeft=6;overflow=hidden;" parent="jEpxMDrMPe9GixwwqnaU-247" vertex="1"><mxGeometry x="30" width="266" height="30" as="geometry"><mxRectangle width="266" height="30" as="alternateBounds"/></mxGeometry></mxCell><mxCell id="jEpxMDrMPe9GixwwqnaU-250" value="" style="shape=tableRow;horizontal=0;startSize=0;swimlaneHead=0;swimlaneBody=0;fillColor=none;collapsible=0;dropTarget=0;points=[[0,0.5],[1,0.5]];portConstraint=eastwest;top=0;left=0;right=0;bottom=0;" parent="jEpxMDrMPe9GixwwqnaU-234" vertex="1"><mxGeometry y="180" width="296" height="30" as="geometry"/></mxCell><mxCell id="jEpxMDrMPe9GixwwqnaU-251" value="" style="shape=partialRectangle;connectable=0;fillColor=none;top=0;left=0;bottom=0;right=0;editable=1;overflow=hidden;" parent="jEpxMDrMPe9GixwwqnaU-250" vertex="1"><mxGeometry width="30" height="30" as="geometry"><mxRectangle width="30" height="30" as="alternateBounds"/></mxGeometry></mxCell><mxCell id="jEpxMDrMPe9GixwwqnaU-252" value="createdAt (생성일시) - datetime" style="shape=partialRectangle;connectable=0;fillColor=none;top=0;left=0;bottom=0;right=0;align=left;spacingLeft=6;overflow=hidden;fontStyle=1" parent="jEpxMDrMPe9GixwwqnaU-250" vertex="1"><mxGeometry x="30" width="266" height="30" as="geometry"><mxRectangle width="266" height="30" as="alternateBounds"/></mxGeometry></mxCell><mxCell id="jEpxMDrMPe9GixwwqnaU-253" value="" style="shape=tableRow;horizontal=0;startSize=0;swimlaneHead=0;swimlaneBody=0;fillColor=none;collapsible=0;dropTarget=0;points=[[0,0.5],[1,0.5]];portConstraint=eastwest;top=0;left=0;right=0;bottom=0;" parent="jEpxMDrMPe9GixwwqnaU-234" vertex="1"><mxGeometry y="210" width="296" height="30" as="geometry"/></mxCell><mxCell id="jEpxMDrMPe9GixwwqnaU-254" value="" style="shape=partialRectangle;connectable=0;fillColor=none;top=0;left=0;bottom=0;right=0;editable=1;overflow=hidden;" parent="jEpxMDrMPe9GixwwqnaU-253" vertex="1"><mxGeometry width="30" height="30" as="geometry"><mxRectangle width="30" height="30" as="alternateBounds"/></mxGeometry></mxCell><mxCell id="jEpxMDrMPe9GixwwqnaU-255" value="createdBy (생성자) - varchar(100)" style="shape=partialRectangle;connectable=0;fillColor=none;top=0;left=0;bottom=0;right=0;align=left;spacingLeft=6;overflow=hidden;fontStyle=1" parent="jEpxMDrMPe9GixwwqnaU-253" vertex="1"><mxGeometry x="30" width="266" height="30" as="geometry"><mxRectangle width="266" height="30" as="alternateBounds"/></mxGeometry></mxCell><mxCell id="jEpxMDrMPe9GixwwqnaU-256" value="" style="shape=tableRow;horizontal=0;startSize=0;swimlaneHead=0;swimlaneBody=0;fillColor=none;collapsible=0;dropTarget=0;points=[[0,0.5],[1,0.5]];portConstraint=eastwest;top=0;left=0;right=0;bottom=0;" parent="jEpxMDrMPe9GixwwqnaU-234" vertex="1"><mxGeometry y="240" width="296" height="30" as="geometry"/></mxCell><mxCell id="jEpxMDrMPe9GixwwqnaU-257" value="" style="shape=partialRectangle;connectable=0;fillColor=none;top=0;left=0;bottom=0;right=0;editable=1;overflow=hidden;" parent="jEpxMDrMPe9GixwwqnaU-256" vertex="1"><mxGeometry width="30" height="30" as="geometry"><mxRectangle width="30" height="30" as="alternateBounds"/></mxGeometry></mxCell><mxCell id="jEpxMDrMPe9GixwwqnaU-258" value="modifiedAt (수정일시) - datetime" style="shape=partialRectangle;connectable=0;fillColor=none;top=0;left=0;bottom=0;right=0;align=left;spacingLeft=6;overflow=hidden;fontStyle=1" parent="jEpxMDrMPe9GixwwqnaU-256" vertex="1"><mxGeometry x="30" width="266" height="30" as="geometry"><mxRectangle width="266" height="30" as="alternateBounds"/></mxGeometry></mxCell><mxCell id="jEpxMDrMPe9GixwwqnaU-259" value="" style="shape=tableRow;horizontal=0;startSize=0;swimlaneHead=0;swimlaneBody=0;fillColor=none;collapsible=0;dropTarget=0;points=[[0,0.5],[1,0.5]];portConstraint=eastwest;top=0;left=0;right=0;bottom=0;" parent="jEpxMDrMPe9GixwwqnaU-234" vertex="1"><mxGeometry y="270" width="296" height="30" as="geometry"/></mxCell><mxCell id="jEpxMDrMPe9GixwwqnaU-260" value="" style="shape=partialRectangle;connectable=0;fillColor=none;top=0;left=0;bottom=0;right=0;editable=1;overflow=hidden;" parent="jEpxMDrMPe9GixwwqnaU-259" vertex="1"><mxGeometry width="30" height="30" as="geometry"><mxRectangle width="30" height="30" as="alternateBounds"/></mxGeometry></mxCell><mxCell id="jEpxMDrMPe9GixwwqnaU-261" value="modifiedBy (수정자) - varchar(100)" style="shape=partialRectangle;connectable=0;fillColor=none;top=0;left=0;bottom=0;right=0;align=left;spacingLeft=6;overflow=hidden;fontStyle=1" parent="jEpxMDrMPe9GixwwqnaU-259" vertex="1"><mxGeometry x="30" width="266" height="30" as="geometry"><mxRectangle width="266" height="30" as="alternateBounds"/></mxGeometry></mxCell><mxCell id="jEpxMDrMPe9GixwwqnaU-262" value="" style="edgeStyle=orthogonalEdgeStyle;fontSize=12;html=1;endArrow=ERzeroToMany;startArrow=ERmandOne;rounded=0;elbow=vertical;exitX=1;exitY=0.5;exitDx=0;exitDy=0;entryX=0;entryY=0.5;entryDx=0;entryDy=0;" parent="1" source="jEpxMDrMPe9GixwwqnaU-235" target="jEpxMDrMPe9GixwwqnaU-212" edge="1"><mxGeometry width="100" height="100" relative="1" as="geometry"><mxPoint x="470" y="440" as="sourcePoint"/><mxPoint x="570" y="340" as="targetPoint"/><Array as="points"><mxPoint x="440" y="625"/><mxPoint x="440" y="265"/></Array></mxGeometry></mxCell><mxCell id="jEpxMDrMPe9GixwwqnaU-263" value="" style="edgeStyle=orthogonalEdgeStyle;fontSize=12;html=1;endArrow=ERzeroToMany;startArrow=ERmandOne;rounded=0;elbow=vertical;entryX=1;entryY=0.5;entryDx=0;entryDy=0;exitX=0;exitY=0.5;exitDx=0;exitDy=0;" parent="1" source="jEpxMDrMPe9GixwwqnaU-235" target="jEpxMDrMPe9GixwwqnaU-184" edge="1"><mxGeometry width="100" height="100" relative="1" as="geometry"><mxPoint x="140" y="620" as="sourcePoint"/><mxPoint x="240" y="520" as="targetPoint"/><Array as="points"><mxPoint x="60" y="625"/><mxPoint x="60" y="520"/><mxPoint x="410" y="520"/><mxPoint x="410" y="235"/></Array></mxGeometry></mxCell><mxCell id="jEpxMDrMPe9GixwwqnaU-264" value="hashtag (해시태그)" style="shape=table;startSize=30;container=1;collapsible=1;childLayout=tableLayout;fixedRows=1;rowLines=0;fontStyle=1;align=center;resizeLast=1;" parent="1" vertex="1"><mxGeometry x="850" y="580" width="290" height="220" as="geometry"/></mxCell><mxCell id="jEpxMDrMPe9GixwwqnaU-265" value="" style="shape=tableRow;horizontal=0;startSize=0;swimlaneHead=0;swimlaneBody=0;fillColor=none;collapsible=0;dropTarget=0;points=[[0,0.5],[1,0.5]];portConstraint=eastwest;top=0;left=0;right=0;bottom=1;" parent="jEpxMDrMPe9GixwwqnaU-264" vertex="1"><mxGeometry y="30" width="290" height="30" as="geometry"/></mxCell><mxCell id="jEpxMDrMPe9GixwwqnaU-266" value="PK" style="shape=partialRectangle;connectable=0;fillColor=none;top=0;left=0;bottom=0;right=0;fontStyle=1;overflow=hidden;" parent="jEpxMDrMPe9GixwwqnaU-265" vertex="1"><mxGeometry width="30" height="30" as="geometry"><mxRectangle width="30" height="30" as="alternateBounds"/></mxGeometry></mxCell><mxCell id="jEpxMDrMPe9GixwwqnaU-267" value="id - bigint" style="shape=partialRectangle;connectable=0;fillColor=none;top=0;left=0;bottom=0;right=0;align=left;spacingLeft=6;fontStyle=5;overflow=hidden;" parent="jEpxMDrMPe9GixwwqnaU-265" vertex="1"><mxGeometry x="30" width="260" height="30" as="geometry"><mxRectangle width="260" height="30" as="alternateBounds"/></mxGeometry></mxCell><mxCell id="jEpxMDrMPe9GixwwqnaU-268" value="" style="shape=tableRow;horizontal=0;startSize=0;swimlaneHead=0;swimlaneBody=0;fillColor=none;collapsible=0;dropTarget=0;points=[[0,0.5],[1,0.5]];portConstraint=eastwest;top=0;left=0;right=0;bottom=0;" parent="jEpxMDrMPe9GixwwqnaU-264" vertex="1"><mxGeometry y="60" width="290" height="30" as="geometry"/></mxCell><mxCell id="jEpxMDrMPe9GixwwqnaU-269" value="UK" style="shape=partialRectangle;connectable=0;fillColor=none;top=0;left=0;bottom=0;right=0;editable=1;overflow=hidden;" parent="jEpxMDrMPe9GixwwqnaU-268" vertex="1"><mxGeometry width="30" height="30" as="geometry"><mxRectangle width="30" height="30" as="alternateBounds"/></mxGeometry></mxCell><mxCell id="jEpxMDrMPe9GixwwqnaU-270" value="hashtag_name (해시태그 이름) - varchar(50)" style="shape=partialRectangle;connectable=0;fillColor=none;top=0;left=0;bottom=0;right=0;align=left;spacingLeft=6;overflow=hidden;fontStyle=1" parent="jEpxMDrMPe9GixwwqnaU-268" vertex="1"><mxGeometry x="30" width="260" height="30" as="geometry"><mxRectangle width="260" height="30" as="alternateBounds"/></mxGeometry></mxCell><mxCell id="jEpxMDrMPe9GixwwqnaU-271" value="" style="shape=tableRow;horizontal=0;startSize=0;swimlaneHead=0;swimlaneBody=0;fillColor=none;collapsible=0;dropTarget=0;points=[[0,0.5],[1,0.5]];portConstraint=eastwest;top=0;left=0;right=0;bottom=0;" parent="jEpxMDrMPe9GixwwqnaU-264" vertex="1"><mxGeometry y="90" width="290" height="30" as="geometry"/></mxCell><mxCell id="jEpxMDrMPe9GixwwqnaU-272" value="" style="shape=partialRectangle;connectable=0;fillColor=none;top=0;left=0;bottom=0;right=0;editable=1;overflow=hidden;" parent="jEpxMDrMPe9GixwwqnaU-271" vertex="1"><mxGeometry width="30" height="30" as="geometry"><mxRectangle width="30" height="30" as="alternateBounds"/></mxGeometry></mxCell><mxCell id="jEpxMDrMPe9GixwwqnaU-273" value="createdAt (생성일시) - datetime" style="shape=partialRectangle;connectable=0;fillColor=none;top=0;left=0;bottom=0;right=0;align=left;spacingLeft=6;overflow=hidden;fontStyle=1" parent="jEpxMDrMPe9GixwwqnaU-271" vertex="1"><mxGeometry x="30" width="260" height="30" as="geometry"><mxRectangle width="260" height="30" as="alternateBounds"/></mxGeometry></mxCell><mxCell id="jEpxMDrMPe9GixwwqnaU-274" value="" style="shape=tableRow;horizontal=0;startSize=0;swimlaneHead=0;swimlaneBody=0;fillColor=none;collapsible=0;dropTarget=0;points=[[0,0.5],[1,0.5]];portConstraint=eastwest;top=0;left=0;right=0;bottom=0;" parent="jEpxMDrMPe9GixwwqnaU-264" vertex="1"><mxGeometry y="120" width="290" height="30" as="geometry"/></mxCell><mxCell id="jEpxMDrMPe9GixwwqnaU-275" value="" style="shape=partialRectangle;connectable=0;fillColor=none;top=0;left=0;bottom=0;right=0;editable=1;overflow=hidden;" parent="jEpxMDrMPe9GixwwqnaU-274" vertex="1"><mxGeometry width="30" height="30" as="geometry"><mxRectangle width="30" height="30" as="alternateBounds"/></mxGeometry></mxCell><mxCell id="jEpxMDrMPe9GixwwqnaU-276" value="createdBy (생성자) - varchar(100)" style="shape=partialRectangle;connectable=0;fillColor=none;top=0;left=0;bottom=0;right=0;align=left;spacingLeft=6;overflow=hidden;fontStyle=1" parent="jEpxMDrMPe9GixwwqnaU-274" vertex="1"><mxGeometry x="30" width="260" height="30" as="geometry"><mxRectangle width="260" height="30" as="alternateBounds"/></mxGeometry></mxCell><mxCell id="jEpxMDrMPe9GixwwqnaU-277" value="" style="shape=tableRow;horizontal=0;startSize=0;swimlaneHead=0;swimlaneBody=0;fillColor=none;collapsible=0;dropTarget=0;points=[[0,0.5],[1,0.5]];portConstraint=eastwest;top=0;left=0;right=0;bottom=0;" parent="jEpxMDrMPe9GixwwqnaU-264" vertex="1"><mxGeometry y="150" width="290" height="30" as="geometry"/></mxCell><mxCell id="jEpxMDrMPe9GixwwqnaU-278" value="" style="shape=partialRectangle;connectable=0;fillColor=none;top=0;left=0;bottom=0;right=0;editable=1;overflow=hidden;" parent="jEpxMDrMPe9GixwwqnaU-277" vertex="1"><mxGeometry width="30" height="30" as="geometry"><mxRectangle width="30" height="30" as="alternateBounds"/></mxGeometry></mxCell><mxCell id="jEpxMDrMPe9GixwwqnaU-279" value="modifiedAt (수정일시) - datetime" style="shape=partialRectangle;connectable=0;fillColor=none;top=0;left=0;bottom=0;right=0;align=left;spacingLeft=6;overflow=hidden;fontStyle=1" parent="jEpxMDrMPe9GixwwqnaU-277" vertex="1"><mxGeometry x="30" width="260" height="30" as="geometry"><mxRectangle width="260" height="30" as="alternateBounds"/></mxGeometry></mxCell><mxCell id="jEpxMDrMPe9GixwwqnaU-280" value="" style="shape=tableRow;horizontal=0;startSize=0;swimlaneHead=0;swimlaneBody=0;fillColor=none;collapsible=0;dropTarget=0;points=[[0,0.5],[1,0.5]];portConstraint=eastwest;top=0;left=0;right=0;bottom=0;" parent="jEpxMDrMPe9GixwwqnaU-264" vertex="1"><mxGeometry y="180" width="290" height="30" as="geometry"/></mxCell><mxCell id="jEpxMDrMPe9GixwwqnaU-281" value="" style="shape=partialRectangle;connectable=0;fillColor=none;top=0;left=0;bottom=0;right=0;editable=1;overflow=hidden;" parent="jEpxMDrMPe9GixwwqnaU-280" vertex="1"><mxGeometry width="30" height="30" as="geometry"><mxRectangle width="30" height="30" as="alternateBounds"/></mxGeometry></mxCell><mxCell id="jEpxMDrMPe9GixwwqnaU-282" value="modifiedBy (수정자) - varchar(100)" style="shape=partialRectangle;connectable=0;fillColor=none;top=0;left=0;bottom=0;right=0;align=left;spacingLeft=6;overflow=hidden;fontStyle=1" parent="jEpxMDrMPe9GixwwqnaU-280" vertex="1"><mxGeometry x="30" width="260" height="30" as="geometry"><mxRectangle width="260" height="30" as="alternateBounds"/></mxGeometry></mxCell><mxCell id="jEpxMDrMPe9GixwwqnaU-283" value="restaurant_hashtag (음식점 - 해시태그 매핑)" style="shape=table;startSize=30;container=1;collapsible=1;childLayout=tableLayout;fixedRows=1;rowLines=0;fontStyle=1;align=center;resizeLast=1;" parent="1" vertex="1"><mxGeometry x="520" y="585" width="256" height="130" as="geometry"/></mxCell><mxCell id="jEpxMDrMPe9GixwwqnaU-284" value="" style="shape=tableRow;horizontal=0;startSize=0;swimlaneHead=0;swimlaneBody=0;fillColor=none;collapsible=0;dropTarget=0;points=[[0,0.5],[1,0.5]];portConstraint=eastwest;top=0;left=0;right=0;bottom=1;" parent="jEpxMDrMPe9GixwwqnaU-283" vertex="1"><mxGeometry y="30" width="256" height="30" as="geometry"/></mxCell><mxCell id="jEpxMDrMPe9GixwwqnaU-285" value="PK" style="shape=partialRectangle;connectable=0;fillColor=none;top=0;left=0;bottom=0;right=0;fontStyle=1;overflow=hidden;" parent="jEpxMDrMPe9GixwwqnaU-284" vertex="1"><mxGeometry width="30" height="30" as="geometry"><mxRectangle width="30" height="30" as="alternateBounds"/></mxGeometry></mxCell><mxCell id="jEpxMDrMPe9GixwwqnaU-286" value="id - bigint" style="shape=partialRectangle;connectable=0;fillColor=none;top=0;left=0;bottom=0;right=0;align=left;spacingLeft=6;fontStyle=5;overflow=hidden;" parent="jEpxMDrMPe9GixwwqnaU-284" vertex="1"><mxGeometry x="30" width="226" height="30" as="geometry"><mxRectangle width="226" height="30" as="alternateBounds"/></mxGeometry></mxCell><mxCell id="jEpxMDrMPe9GixwwqnaU-287" value="" style="shape=tableRow;horizontal=0;startSize=0;swimlaneHead=0;swimlaneBody=0;fillColor=none;collapsible=0;dropTarget=0;points=[[0,0.5],[1,0.5]];portConstraint=eastwest;top=0;left=0;right=0;bottom=0;" parent="jEpxMDrMPe9GixwwqnaU-283" vertex="1"><mxGeometry y="60" width="256" height="30" as="geometry"/></mxCell><mxCell id="jEpxMDrMPe9GixwwqnaU-288" value="FK" style="shape=partialRectangle;connectable=0;fillColor=none;top=0;left=0;bottom=0;right=0;editable=1;overflow=hidden;" parent="jEpxMDrMPe9GixwwqnaU-287" vertex="1"><mxGeometry width="30" height="30" as="geometry"><mxRectangle width="30" height="30" as="alternateBounds"/></mxGeometry></mxCell><mxCell id="jEpxMDrMPe9GixwwqnaU-289" value="restaurant_id (음식점 id) - bigint" style="shape=partialRectangle;connectable=0;fillColor=none;top=0;left=0;bottom=0;right=0;align=left;spacingLeft=6;overflow=hidden;fontStyle=1" parent="jEpxMDrMPe9GixwwqnaU-287" vertex="1"><mxGeometry x="30" width="226" height="30" as="geometry"><mxRectangle width="226" height="30" as="alternateBounds"/></mxGeometry></mxCell><mxCell id="jEpxMDrMPe9GixwwqnaU-290" value="" style="shape=tableRow;horizontal=0;startSize=0;swimlaneHead=0;swimlaneBody=0;fillColor=none;collapsible=0;dropTarget=0;points=[[0,0.5],[1,0.5]];portConstraint=eastwest;top=0;left=0;right=0;bottom=0;" parent="jEpxMDrMPe9GixwwqnaU-283" vertex="1"><mxGeometry y="90" width="256" height="30" as="geometry"/></mxCell><mxCell id="jEpxMDrMPe9GixwwqnaU-291" value="FK" style="shape=partialRectangle;connectable=0;fillColor=none;top=0;left=0;bottom=0;right=0;editable=1;overflow=hidden;" parent="jEpxMDrMPe9GixwwqnaU-290" vertex="1"><mxGeometry width="30" height="30" as="geometry"><mxRectangle width="30" height="30" as="alternateBounds"/></mxGeometry></mxCell><mxCell id="jEpxMDrMPe9GixwwqnaU-292" value="hashtag_id (해시태그 id) - bigint" style="shape=partialRectangle;connectable=0;fillColor=none;top=0;left=0;bottom=0;right=0;align=left;spacingLeft=6;overflow=hidden;fontStyle=1" parent="jEpxMDrMPe9GixwwqnaU-290" vertex="1"><mxGeometry x="30" width="226" height="30" as="geometry"><mxRectangle width="226" height="30" as="alternateBounds"/></mxGeometry></mxCell><mxCell id="jEpxMDrMPe9GixwwqnaU-293" style="edgeStyle=orthogonalEdgeStyle;rounded=0;orthogonalLoop=1;jettySize=auto;html=1;exitX=1;exitY=0.5;exitDx=0;exitDy=0;entryX=0;entryY=0.5;entryDx=0;entryDy=0;endArrow=ERoneToMany;endFill=0;startArrow=ERmandOne;startFill=0;" parent="1" source="jEpxMDrMPe9GixwwqnaU-290" target="jEpxMDrMPe9GixwwqnaU-265" edge="1"><mxGeometry relative="1" as="geometry"/></mxCell><mxCell id="jEpxMDrMPe9GixwwqnaU-294" style="edgeStyle=orthogonalEdgeStyle;rounded=0;orthogonalLoop=1;jettySize=auto;html=1;exitX=0;exitY=0.5;exitDx=0;exitDy=0;startArrow=ERmandOne;startFill=0;endArrow=ERoneToMany;endFill=0;entryX=1.006;entryY=0.767;entryDx=0;entryDy=0;entryPerimeter=0;" parent="1" source="jEpxMDrMPe9GixwwqnaU-287" target="jEpxMDrMPe9GixwwqnaU-181" edge="1"><mxGeometry relative="1" as="geometry"><Array as="points"><mxPoint x="520" y="655"/><mxPoint x="480" y="655"/><mxPoint x="480" y="213"/></Array></mxGeometry></mxCell><mxCell id="jEpxMDrMPe9GixwwqnaU-299" value="restaurant_comment (대댓글)" style="shape=table;startSize=30;container=1;collapsible=1;childLayout=tableLayout;fixedRows=1;rowLines=0;fontStyle=1;align=center;resizeLast=1;" parent="1" vertex="1"><mxGeometry x="1239" y="180" width="321" height="280" as="geometry"/></mxCell><mxCell id="jEpxMDrMPe9GixwwqnaU-300" value="" style="shape=tableRow;horizontal=0;startSize=1;swimlaneHead=0;swimlaneBody=0;fillColor=none;collapsible=0;dropTarget=0;points=[[0,0.5],[1,0.5]];portConstraint=eastwest;top=0;left=0;right=0;bottom=1;" parent="jEpxMDrMPe9GixwwqnaU-299" vertex="1"><mxGeometry y="30" width="321" height="30" as="geometry"/></mxCell><mxCell id="jEpxMDrMPe9GixwwqnaU-301" value="PK" style="shape=partialRectangle;connectable=0;fillColor=none;top=0;left=0;bottom=0;right=0;fontStyle=1;overflow=hidden;" parent="jEpxMDrMPe9GixwwqnaU-300" vertex="1"><mxGeometry x="1" width="30" height="30" as="geometry"><mxRectangle width="30" height="30" as="alternateBounds"/></mxGeometry></mxCell><mxCell id="jEpxMDrMPe9GixwwqnaU-302" value="id - bigint" style="shape=partialRectangle;connectable=0;fillColor=none;top=0;left=0;bottom=0;right=0;align=left;spacingLeft=6;fontStyle=5;overflow=hidden;" parent="jEpxMDrMPe9GixwwqnaU-300" vertex="1"><mxGeometry x="31" width="290" height="30" as="geometry"><mxRectangle width="290" height="30" as="alternateBounds"/></mxGeometry></mxCell><mxCell id="jEpxMDrMPe9GixwwqnaU-303" value="" style="shape=tableRow;horizontal=0;startSize=1;swimlaneHead=0;swimlaneBody=0;fillColor=none;collapsible=0;dropTarget=0;points=[[0,0.5],[1,0.5]];portConstraint=eastwest;top=0;left=0;right=0;bottom=0;" parent="jEpxMDrMPe9GixwwqnaU-299" vertex="1"><mxGeometry y="60" width="321" height="30" as="geometry"/></mxCell><mxCell id="jEpxMDrMPe9GixwwqnaU-304" value="FK" style="shape=partialRectangle;connectable=0;fillColor=none;top=0;left=0;bottom=0;right=0;editable=1;overflow=hidden;" parent="jEpxMDrMPe9GixwwqnaU-303" vertex="1"><mxGeometry x="1" width="30" height="30" as="geometry"><mxRectangle width="30" height="30" as="alternateBounds"/></mxGeometry></mxCell><mxCell id="jEpxMDrMPe9GixwwqnaU-305" value="parent_restaurant_id (부모 게시글 id) - bigint" style="shape=partialRectangle;connectable=0;fillColor=none;top=0;left=0;bottom=0;right=0;align=left;spacingLeft=6;overflow=hidden;fontStyle=1" parent="jEpxMDrMPe9GixwwqnaU-303" vertex="1"><mxGeometry x="31" width="290" height="30" as="geometry"><mxRectangle width="290" height="30" as="alternateBounds"/></mxGeometry></mxCell><mxCell id="jEpxMDrMPe9GixwwqnaU-306" value="" style="shape=tableRow;horizontal=0;startSize=1;swimlaneHead=0;swimlaneBody=0;fillColor=none;collapsible=0;dropTarget=0;points=[[0,0.5],[1,0.5]];portConstraint=eastwest;top=0;left=0;right=0;bottom=0;" parent="jEpxMDrMPe9GixwwqnaU-299" vertex="1"><mxGeometry y="90" width="321" height="30" as="geometry"/></mxCell><mxCell id="jEpxMDrMPe9GixwwqnaU-307" value="FK" style="shape=partialRectangle;connectable=0;fillColor=none;top=0;left=0;bottom=0;right=0;editable=1;overflow=hidden;" parent="jEpxMDrMPe9GixwwqnaU-306" vertex="1"><mxGeometry x="1" width="30" height="30" as="geometry"><mxRectangle width="30" height="30" as="alternateBounds"/></mxGeometry></mxCell><mxCell id="jEpxMDrMPe9GixwwqnaU-308" value="user_account_id (유저 계정 id) - varchar(50)" style="shape=partialRectangle;connectable=0;fillColor=none;top=0;left=0;bottom=0;right=0;align=left;spacingLeft=6;overflow=hidden;fontStyle=1" parent="jEpxMDrMPe9GixwwqnaU-306" vertex="1"><mxGeometry x="31" width="290" height="30" as="geometry"><mxRectangle width="290" height="30" as="alternateBounds"/></mxGeometry></mxCell><mxCell id="jEpxMDrMPe9GixwwqnaU-309" value="" style="shape=tableRow;horizontal=0;startSize=1;swimlaneHead=0;swimlaneBody=0;fillColor=none;collapsible=0;dropTarget=0;points=[[0,0.5],[1,0.5]];portConstraint=eastwest;top=0;left=0;right=0;bottom=0;" parent="jEpxMDrMPe9GixwwqnaU-299" vertex="1"><mxGeometry y="120" width="321" height="30" as="geometry"/></mxCell><mxCell id="jEpxMDrMPe9GixwwqnaU-310" value="" style="shape=partialRectangle;connectable=0;fillColor=none;top=0;left=0;bottom=0;right=0;editable=1;overflow=hidden;" parent="jEpxMDrMPe9GixwwqnaU-309" vertex="1"><mxGeometry x="1" width="30" height="30" as="geometry"><mxRectangle width="30" height="30" as="alternateBounds"/></mxGeometry></mxCell><mxCell id="jEpxMDrMPe9GixwwqnaU-311" value="content (본문) - varchar(2000)" style="shape=partialRectangle;connectable=0;fillColor=none;top=0;left=0;bottom=0;right=0;align=left;spacingLeft=6;overflow=hidden;fontStyle=1" parent="jEpxMDrMPe9GixwwqnaU-309" vertex="1"><mxGeometry x="31" width="290" height="30" as="geometry"><mxRectangle width="290" height="30" as="alternateBounds"/></mxGeometry></mxCell><mxCell id="jEpxMDrMPe9GixwwqnaU-312" value="" style="shape=tableRow;horizontal=0;startSize=1;swimlaneHead=0;swimlaneBody=0;fillColor=none;collapsible=0;dropTarget=0;points=[[0,0.5],[1,0.5]];portConstraint=eastwest;top=0;left=0;right=0;bottom=0;" parent="jEpxMDrMPe9GixwwqnaU-299" vertex="1"><mxGeometry y="150" width="321" height="30" as="geometry"/></mxCell><mxCell id="jEpxMDrMPe9GixwwqnaU-313" value="" style="shape=partialRectangle;connectable=0;fillColor=none;top=0;left=0;bottom=0;right=0;editable=1;overflow=hidden;" parent="jEpxMDrMPe9GixwwqnaU-312" vertex="1"><mxGeometry x="1" width="30" height="30" as="geometry"><mxRectangle width="30" height="30" as="alternateBounds"/></mxGeometry></mxCell><mxCell id="jEpxMDrMPe9GixwwqnaU-314" value="createdAt (생성일시) - datetime" style="shape=partialRectangle;connectable=0;fillColor=none;top=0;left=0;bottom=0;right=0;align=left;spacingLeft=6;overflow=hidden;fontStyle=1" parent="jEpxMDrMPe9GixwwqnaU-312" vertex="1"><mxGeometry x="31" width="290" height="30" as="geometry"><mxRectangle width="290" height="30" as="alternateBounds"/></mxGeometry></mxCell><mxCell id="jEpxMDrMPe9GixwwqnaU-315" value="" style="shape=tableRow;horizontal=0;startSize=1;swimlaneHead=0;swimlaneBody=0;fillColor=none;collapsible=0;dropTarget=0;points=[[0,0.5],[1,0.5]];portConstraint=eastwest;top=0;left=0;right=0;bottom=0;" parent="jEpxMDrMPe9GixwwqnaU-299" vertex="1"><mxGeometry y="180" width="321" height="30" as="geometry"/></mxCell><mxCell id="jEpxMDrMPe9GixwwqnaU-316" value="" style="shape=partialRectangle;connectable=0;fillColor=none;top=0;left=0;bottom=0;right=0;editable=1;overflow=hidden;" parent="jEpxMDrMPe9GixwwqnaU-315" vertex="1"><mxGeometry x="1" width="30" height="30" as="geometry"><mxRectangle width="30" height="30" as="alternateBounds"/></mxGeometry></mxCell><mxCell id="jEpxMDrMPe9GixwwqnaU-317" value="createdBy (생성자) - varchar(100)" style="shape=partialRectangle;connectable=0;fillColor=none;top=0;left=0;bottom=0;right=0;align=left;spacingLeft=6;overflow=hidden;fontStyle=1" parent="jEpxMDrMPe9GixwwqnaU-315" vertex="1"><mxGeometry x="31" width="290" height="30" as="geometry"><mxRectangle width="290" height="30" as="alternateBounds"/></mxGeometry></mxCell><mxCell id="jEpxMDrMPe9GixwwqnaU-318" value="" style="shape=tableRow;horizontal=0;startSize=1;swimlaneHead=0;swimlaneBody=0;fillColor=none;collapsible=0;dropTarget=0;points=[[0,0.5],[1,0.5]];portConstraint=eastwest;top=0;left=0;right=0;bottom=0;" parent="jEpxMDrMPe9GixwwqnaU-299" vertex="1"><mxGeometry y="210" width="321" height="30" as="geometry"/></mxCell><mxCell id="jEpxMDrMPe9GixwwqnaU-319" value="" style="shape=partialRectangle;connectable=0;fillColor=none;top=0;left=0;bottom=0;right=0;editable=1;overflow=hidden;" parent="jEpxMDrMPe9GixwwqnaU-318" vertex="1"><mxGeometry x="1" width="30" height="30" as="geometry"><mxRectangle width="30" height="30" as="alternateBounds"/></mxGeometry></mxCell><mxCell id="jEpxMDrMPe9GixwwqnaU-320" value="modifiedAt (수정일시) - datetime" style="shape=partialRectangle;connectable=0;fillColor=none;top=0;left=0;bottom=0;right=0;align=left;spacingLeft=6;overflow=hidden;fontStyle=1" parent="jEpxMDrMPe9GixwwqnaU-318" vertex="1"><mxGeometry x="31" width="290" height="30" as="geometry"><mxRectangle width="290" height="30" as="alternateBounds"/></mxGeometry></mxCell><mxCell id="jEpxMDrMPe9GixwwqnaU-321" value="" style="shape=tableRow;horizontal=0;startSize=1;swimlaneHead=0;swimlaneBody=0;fillColor=none;collapsible=0;dropTarget=0;points=[[0,0.5],[1,0.5]];portConstraint=eastwest;top=0;left=0;right=0;bottom=0;" parent="jEpxMDrMPe9GixwwqnaU-299" vertex="1"><mxGeometry y="240" width="321" height="30" as="geometry"/></mxCell><mxCell id="jEpxMDrMPe9GixwwqnaU-322" value="" style="shape=partialRectangle;connectable=0;fillColor=none;top=0;left=0;bottom=0;right=0;editable=1;overflow=hidden;" parent="jEpxMDrMPe9GixwwqnaU-321" vertex="1"><mxGeometry x="1" width="30" height="30" as="geometry"><mxRectangle width="30" height="30" as="alternateBounds"/></mxGeometry></mxCell><mxCell id="jEpxMDrMPe9GixwwqnaU-323" value="modifiedBy (수정자) - varchar(100)" style="shape=partialRectangle;connectable=0;fillColor=none;top=0;left=0;bottom=0;right=0;align=left;spacingLeft=6;overflow=hidden;fontStyle=1" parent="jEpxMDrMPe9GixwwqnaU-321" vertex="1"><mxGeometry x="31" width="290" height="30" as="geometry"><mxRectangle width="290" height="30" as="alternateBounds"/></mxGeometry></mxCell><mxCell id="jEpxMDrMPe9GixwwqnaU-326" value="" style="edgeStyle=orthogonalEdgeStyle;fontSize=12;html=1;endArrow=ERzeroToMany;startArrow=ERmandOne;rounded=0;elbow=vertical;exitX=1.007;exitY=0.867;exitDx=0;exitDy=0;entryX=0.007;entryY=0.3;entryDx=0;entryDy=0;exitPerimeter=0;entryPerimeter=0;" parent="1" source="jEpxMDrMPe9GixwwqnaU-235" target="jEpxMDrMPe9GixwwqnaU-306" edge="1"><mxGeometry width="100" height="100" relative="1" as="geometry"><mxPoint x="390" y="635" as="sourcePoint"/><mxPoint x="830" y="275" as="targetPoint"/><Array as="points"><mxPoint x="382" y="635"/><mxPoint x="460" y="635"/><mxPoint x="460" y="500"/><mxPoint x="1160" y="500"/><mxPoint x="1160" y="279"/></Array></mxGeometry></mxCell><mxCell id="jEpxMDrMPe9GixwwqnaU-327" value="" style="edgeStyle=orthogonalEdgeStyle;fontSize=12;html=1;endArrow=ERzeroToMany;startArrow=ERmandOne;rounded=0;entryX=0;entryY=0.5;entryDx=0;entryDy=0;exitX=1;exitY=0.5;exitDx=0;exitDy=0;" parent="1" source="jEpxMDrMPe9GixwwqnaU-206" target="jEpxMDrMPe9GixwwqnaU-303" edge="1"><mxGeometry width="100" height="100" relative="1" as="geometry"><mxPoint x="760" y="200" as="sourcePoint"/><mxPoint x="1190" y="237" as="targetPoint"/></mxGeometry></mxCell><mxCell id="jEpxMDrMPe9GixwwqnaU-353" value="" style="edgeStyle=orthogonalEdgeStyle;fontSize=12;html=1;endArrow=ERzeroToMany;startArrow=ERmandOne;rounded=0;elbow=vertical;entryX=0;entryY=0.5;entryDx=0;entryDy=0;" parent="1" target="jEpxMDrMPe9GixwwqnaU-332" edge="1"><mxGeometry width="100" height="100" relative="1" as="geometry"><mxPoint x="80" y="630" as="sourcePoint"/><mxPoint x="400" y="245" as="targetPoint"/><Array as="points"><mxPoint x="80" y="635"/><mxPoint x="10" y="635"/><mxPoint x="10" y="-65"/></Array></mxGeometry></mxCell><mxCell id="jEpxMDrMPe9GixwwqnaU-354" style="edgeStyle=orthogonalEdgeStyle;rounded=0;orthogonalLoop=1;jettySize=auto;html=1;exitX=0;exitY=0.5;exitDx=0;exitDy=0;startArrow=ERmandOne;startFill=0;endArrow=ERmandOne;endFill=0;entryX=0;entryY=0.5;entryDx=0;entryDy=0;" parent="1" source="jEpxMDrMPe9GixwwqnaU-335" target="jEpxMDrMPe9GixwwqnaU-181" edge="1"><mxGeometry relative="1" as="geometry"><Array as="points"><mxPoint x="40" y="-35"/><mxPoint x="40" y="205"/></Array><mxPoint x="-62" y="670" as="sourcePoint"/><mxPoint x="-190" y="223" as="targetPoint"/></mxGeometry></mxCell><mxCell id="jEpxMDrMPe9GixwwqnaU-328" value="restaurant_picture(음식점 사진)" style="shape=table;startSize=30;container=1;collapsible=1;childLayout=tableLayout;fixedRows=1;rowLines=0;fontStyle=1;align=center;resizeLast=1;" parent="1" vertex="1"><mxGeometry x="540" y="-140" width="300" height="310" as="geometry"/></mxCell><mxCell id="jEpxMDrMPe9GixwwqnaU-329" value="" style="shape=tableRow;horizontal=0;startSize=0;swimlaneHead=0;swimlaneBody=0;fillColor=none;collapsible=0;dropTarget=0;points=[[0,0.5],[1,0.5]];portConstraint=eastwest;top=0;left=0;right=0;bottom=1;" parent="jEpxMDrMPe9GixwwqnaU-328" vertex="1"><mxGeometry y="30" width="300" height="30" as="geometry"/></mxCell><mxCell id="jEpxMDrMPe9GixwwqnaU-330" value="PK" style="shape=partialRectangle;connectable=0;fillColor=none;top=0;left=0;bottom=0;right=0;fontStyle=1;overflow=hidden;" parent="jEpxMDrMPe9GixwwqnaU-329" vertex="1"><mxGeometry width="30" height="30" as="geometry"><mxRectangle width="30" height="30" as="alternateBounds"/></mxGeometry></mxCell><mxCell id="jEpxMDrMPe9GixwwqnaU-331" value="id - bigint" style="shape=partialRectangle;connectable=0;fillColor=none;top=0;left=0;bottom=0;right=0;align=left;spacingLeft=6;fontStyle=5;overflow=hidden;" parent="jEpxMDrMPe9GixwwqnaU-329" vertex="1"><mxGeometry x="30" width="270" height="30" as="geometry"><mxRectangle width="270" height="30" as="alternateBounds"/></mxGeometry></mxCell><mxCell id="jEpxMDrMPe9GixwwqnaU-332" value="" style="shape=tableRow;horizontal=0;startSize=0;swimlaneHead=0;swimlaneBody=0;fillColor=none;collapsible=0;dropTarget=0;points=[[0,0.5],[1,0.5]];portConstraint=eastwest;top=0;left=0;right=0;bottom=0;" parent="jEpxMDrMPe9GixwwqnaU-328" vertex="1"><mxGeometry y="60" width="300" height="30" as="geometry"/></mxCell><mxCell id="jEpxMDrMPe9GixwwqnaU-333" value="FK" style="shape=partialRectangle;connectable=0;fillColor=none;top=0;left=0;bottom=0;right=0;editable=1;overflow=hidden;" parent="jEpxMDrMPe9GixwwqnaU-332" vertex="1"><mxGeometry width="30" height="30" as="geometry"><mxRectangle width="30" height="30" as="alternateBounds"/></mxGeometry></mxCell><mxCell id="jEpxMDrMPe9GixwwqnaU-334" value="user_account_id (유저 계정 id) - varchar(50)" style="shape=partialRectangle;connectable=0;fillColor=none;top=0;left=0;bottom=0;right=0;align=left;spacingLeft=6;overflow=hidden;fontStyle=1" parent="jEpxMDrMPe9GixwwqnaU-332" vertex="1"><mxGeometry x="30" width="270" height="30" as="geometry"><mxRectangle width="270" height="30" as="alternateBounds"/></mxGeometry></mxCell><mxCell id="jEpxMDrMPe9GixwwqnaU-335" value="" style="shape=tableRow;horizontal=0;startSize=0;swimlaneHead=0;swimlaneBody=0;fillColor=none;collapsible=0;dropTarget=0;points=[[0,0.5],[1,0.5]];portConstraint=eastwest;top=0;left=0;right=0;bottom=0;" parent="jEpxMDrMPe9GixwwqnaU-328" vertex="1"><mxGeometry y="90" width="300" height="30" as="geometry"/></mxCell><mxCell id="jEpxMDrMPe9GixwwqnaU-336" value="" style="shape=partialRectangle;connectable=0;fillColor=none;top=0;left=0;bottom=0;right=0;editable=1;overflow=hidden;" parent="jEpxMDrMPe9GixwwqnaU-335" vertex="1"><mxGeometry width="30" height="30" as="geometry"><mxRectangle width="30" height="30" as="alternateBounds"/></mxGeometry></mxCell><mxCell id="jEpxMDrMPe9GixwwqnaU-337" value="restaurant_id (음식점 id) - bigint" style="shape=partialRectangle;connectable=0;fillColor=none;top=0;left=0;bottom=0;right=0;align=left;spacingLeft=6;overflow=hidden;fontStyle=1" parent="jEpxMDrMPe9GixwwqnaU-335" vertex="1"><mxGeometry x="30" width="270" height="30" as="geometry"><mxRectangle width="270" height="30" as="alternateBounds"/></mxGeometry></mxCell><mxCell id="jEpxMDrMPe9GixwwqnaU-338" value="" style="shape=tableRow;horizontal=0;startSize=0;swimlaneHead=0;swimlaneBody=0;fillColor=none;collapsible=0;dropTarget=0;points=[[0,0.5],[1,0.5]];portConstraint=eastwest;top=0;left=0;right=0;bottom=0;" parent="jEpxMDrMPe9GixwwqnaU-328" vertex="1"><mxGeometry y="120" width="300" height="30" as="geometry"/></mxCell><mxCell id="jEpxMDrMPe9GixwwqnaU-339" value="" style="shape=partialRectangle;connectable=0;fillColor=none;top=0;left=0;bottom=0;right=0;editable=1;overflow=hidden;" parent="jEpxMDrMPe9GixwwqnaU-338" vertex="1"><mxGeometry width="30" height="30" as="geometry"><mxRectangle width="30" height="30" as="alternateBounds"/></mxGeometry></mxCell><mxCell id="jEpxMDrMPe9GixwwqnaU-340" value="title (제목) - varchar(255)" style="shape=partialRectangle;connectable=0;fillColor=none;top=0;left=0;bottom=0;right=0;align=left;spacingLeft=6;overflow=hidden;fontStyle=1" parent="jEpxMDrMPe9GixwwqnaU-338" vertex="1"><mxGeometry x="30" width="270" height="30" as="geometry"><mxRectangle width="270" height="30" as="alternateBounds"/></mxGeometry></mxCell><mxCell id="jEpxMDrMPe9GixwwqnaU-341" value="" style="shape=tableRow;horizontal=0;startSize=0;swimlaneHead=0;swimlaneBody=0;fillColor=none;collapsible=0;dropTarget=0;points=[[0,0.5],[1,0.5]];portConstraint=eastwest;top=0;left=0;right=0;bottom=0;" parent="jEpxMDrMPe9GixwwqnaU-328" vertex="1"><mxGeometry y="150" width="300" height="30" as="geometry"/></mxCell><mxCell id="jEpxMDrMPe9GixwwqnaU-342" value="" style="shape=partialRectangle;connectable=0;fillColor=none;top=0;left=0;bottom=0;right=0;editable=1;overflow=hidden;" parent="jEpxMDrMPe9GixwwqnaU-341" vertex="1"><mxGeometry width="30" height="30" as="geometry"><mxRectangle width="30" height="30" as="alternateBounds"/></mxGeometry></mxCell><mxCell id="jEpxMDrMPe9GixwwqnaU-343" value="content (본문) - varchar(65535)" style="shape=partialRectangle;connectable=0;fillColor=none;top=0;left=0;bottom=0;right=0;align=left;spacingLeft=6;overflow=hidden;fontStyle=1" parent="jEpxMDrMPe9GixwwqnaU-341" vertex="1"><mxGeometry x="30" width="270" height="30" as="geometry"><mxRectangle width="270" height="30" as="alternateBounds"/></mxGeometry></mxCell><mxCell id="jEpxMDrMPe9GixwwqnaU-344" value="" style="shape=tableRow;horizontal=0;startSize=0;swimlaneHead=0;swimlaneBody=0;fillColor=none;collapsible=0;dropTarget=0;points=[[0,0.5],[1,0.5]];portConstraint=eastwest;top=0;left=0;right=0;bottom=0;" parent="jEpxMDrMPe9GixwwqnaU-328" vertex="1"><mxGeometry y="180" width="300" height="30" as="geometry"/></mxCell><mxCell id="jEpxMDrMPe9GixwwqnaU-345" value="" style="shape=partialRectangle;connectable=0;fillColor=none;top=0;left=0;bottom=0;right=0;editable=1;overflow=hidden;" parent="jEpxMDrMPe9GixwwqnaU-344" vertex="1"><mxGeometry width="30" height="30" as="geometry"><mxRectangle width="30" height="30" as="alternateBounds"/></mxGeometry></mxCell><mxCell id="jEpxMDrMPe9GixwwqnaU-346" value="createdAt (생성일시) - datetime" style="shape=partialRectangle;connectable=0;fillColor=none;top=0;left=0;bottom=0;right=0;align=left;spacingLeft=6;overflow=hidden;fontStyle=1" parent="jEpxMDrMPe9GixwwqnaU-344" vertex="1"><mxGeometry x="30" width="270" height="30" as="geometry"><mxRectangle width="270" height="30" as="alternateBounds"/></mxGeometry></mxCell><mxCell id="jEpxMDrMPe9GixwwqnaU-347" value="" style="shape=tableRow;horizontal=0;startSize=0;swimlaneHead=0;swimlaneBody=0;fillColor=none;collapsible=0;dropTarget=0;points=[[0,0.5],[1,0.5]];portConstraint=eastwest;top=0;left=0;right=0;bottom=0;" parent="jEpxMDrMPe9GixwwqnaU-328" vertex="1"><mxGeometry y="210" width="300" height="30" as="geometry"/></mxCell><mxCell id="jEpxMDrMPe9GixwwqnaU-348" value="" style="shape=partialRectangle;connectable=0;fillColor=none;top=0;left=0;bottom=0;right=0;editable=1;overflow=hidden;" parent="jEpxMDrMPe9GixwwqnaU-347" vertex="1"><mxGeometry width="30" height="30" as="geometry"><mxRectangle width="30" height="30" as="alternateBounds"/></mxGeometry></mxCell><mxCell id="jEpxMDrMPe9GixwwqnaU-349" value="createdBy (생성자) - varchar(100)" style="shape=partialRectangle;connectable=0;fillColor=none;top=0;left=0;bottom=0;right=0;align=left;spacingLeft=6;overflow=hidden;fontStyle=1" parent="jEpxMDrMPe9GixwwqnaU-347" vertex="1"><mxGeometry x="30" width="270" height="30" as="geometry"><mxRectangle width="270" height="30" as="alternateBounds"/></mxGeometry></mxCell><mxCell id="jEpxMDrMPe9GixwwqnaU-350" value="" style="shape=tableRow;horizontal=0;startSize=0;swimlaneHead=0;swimlaneBody=0;fillColor=none;collapsible=0;dropTarget=0;points=[[0,0.5],[1,0.5]];portConstraint=eastwest;top=0;left=0;right=0;bottom=0;" parent="jEpxMDrMPe9GixwwqnaU-328" vertex="1"><mxGeometry y="240" width="300" height="30" as="geometry"/></mxCell><mxCell id="jEpxMDrMPe9GixwwqnaU-351" value="" style="shape=partialRectangle;connectable=0;fillColor=none;top=0;left=0;bottom=0;right=0;editable=1;overflow=hidden;" parent="jEpxMDrMPe9GixwwqnaU-350" vertex="1"><mxGeometry width="30" height="30" as="geometry"><mxRectangle width="30" height="30" as="alternateBounds"/></mxGeometry></mxCell><mxCell id="jEpxMDrMPe9GixwwqnaU-352" value="modifiedAt (수정일시) - datetime" style="shape=partialRectangle;connectable=0;fillColor=none;top=0;left=0;bottom=0;right=0;align=left;spacingLeft=6;overflow=hidden;fontStyle=1" parent="jEpxMDrMPe9GixwwqnaU-350" vertex="1"><mxGeometry x="30" width="270" height="30" as="geometry"><mxRectangle width="270" height="30" as="alternateBounds"/></mxGeometry></mxCell><mxCell id="jEpxMDrMPe9GixwwqnaU-385" value="" style="shape=tableRow;horizontal=0;startSize=0;swimlaneHead=0;swimlaneBody=0;fillColor=none;collapsible=0;dropTarget=0;points=[[0,0.5],[1,0.5]];portConstraint=eastwest;top=0;left=0;right=0;bottom=0;" parent="jEpxMDrMPe9GixwwqnaU-328" vertex="1"><mxGeometry y="270" width="300" height="30" as="geometry"/></mxCell><mxCell id="jEpxMDrMPe9GixwwqnaU-386" value="" style="shape=partialRectangle;connectable=0;fillColor=none;top=0;left=0;bottom=0;right=0;editable=1;overflow=hidden;" parent="jEpxMDrMPe9GixwwqnaU-385" vertex="1"><mxGeometry width="30" height="30" as="geometry"><mxRectangle width="30" height="30" as="alternateBounds"/></mxGeometry></mxCell><mxCell id="jEpxMDrMPe9GixwwqnaU-387" value="modifiedBy (수정자) - varchar(100)" style="shape=partialRectangle;connectable=0;fillColor=none;top=0;left=0;bottom=0;right=0;align=left;spacingLeft=6;overflow=hidden;fontStyle=1" parent="jEpxMDrMPe9GixwwqnaU-385" vertex="1"><mxGeometry x="30" width="270" height="30" as="geometry"><mxRectangle width="270" height="30" as="alternateBounds"/></mxGeometry></mxCell></root></mxGraphModel></diagram><diagram id="rL33oeDmptGlxk9duOhD" name="페이지-2"><mxGraphModel dx="618" dy="210" grid="1" gridSize="10" guides="1" tooltips="1" connect="1" arrows="1" fold="1" page="1" pageScale="1" pageWidth="827" pageHeight="1169" math="0" shadow="0"><root><mxCell id="0"/><mxCell id="1" parent="0"/></root></mxGraphModel></diagram></mxfile>